<?xml version="1.0" standalone="no"?>
<!DOCTYPE svg PUBLIC "-//W3C//DTD SVG 20010904//EN"
 "http://www.w3.org/TR/2001/REC-SVG-20010904/DTD/svg10.dtd">
<svg version="1.0" xmlns="http://www.w3.org/2000/svg"
 width="512.000000pt" height="512.000000pt" viewBox="0 0 512.000000 512.000000"
 preserveAspectRatio="xMidYMid meet">

<g transform="translate(0.000000,512.000000) scale(0.100000,-0.100000)"
fill="#000000" stroke="none">
<path d="M2200 3774 c-127 -43 -422 -212 -437 -250 -4 -12 196 -256 242 -294
12 -10 26 -6 77 18 88 43 148 56 226 49 243 -21 406 -174 420 -394 6 -107 -22
-190 -118 -340 -21 -32 -32 -34 -97 -17 -41 11 -93 14 -173 12 -201 -7 -306
-52 -445 -193 -97 -98 -173 -213 -207 -312 -46 -133 -51 -325 -13 -460 12 -41
25 -59 68 -94 28 -24 54 -47 57 -50 3 -4 45 -32 94 -64 111 -72 286 -153 286
-131 0 2 16 48 36 102 94 262 94 263 78 279 -9 8 -21 15 -28 15 -23 0 -141
117 -168 166 -75 139 -83 326 -18 434 84 142 202 207 395 217 127 7 150 0 160
-49 18 -94 91 -224 170 -304 82 -83 165 -132 290 -170 81 -24 106 -27 240 -27
156 -1 186 4 283 49 29 13 57 24 62 24 14 0 142 89 183 129 21 20 45 47 52 61
33 63 51 338 32 493 -9 67 -9 67 -40 67 -18 0 -48 -4 -67 -9 -19 -5 -60 -14
-90 -20 -30 -6 -90 -18 -132 -27 l-78 -16 0 -47 c-2 -171 -101 -328 -258 -408
-96 -49 -168 -62 -251 -43 -119 27 -217 91 -281 185 -45 66 -80 134 -80 156 0
12 28 56 63 99 115 145 157 255 157 411 -1 139 -41 275 -124 416 -81 138 -245
269 -401 321 -93 30 -116 32 -165 16z"/>
<path d="M3200 3726 c-87 -53 -105 -68 -104 -87 1 -13 17 -76 37 -139 26 -86
41 -119 59 -130 13 -8 49 -39 81 -69 73 -69 119 -159 125 -243 4 -58 -12 -162
-28 -183 -4 -5 -11 -21 -15 -34 -11 -36 -73 -138 -107 -177 -17 -19 -29 -36
-27 -39 9 -8 113 26 172 57 110 58 194 165 243 308 36 107 29 207 -22 315 -16
36 -125 154 -181 197 -15 11 -35 60 -65 152 -24 75 -47 136 -53 136 -5 -1 -57
-29 -115 -64z"/>
<path d="M1695 3140 c-11 -4 -39 -13 -62 -19 -100 -27 -214 -148 -246 -261
-29 -103 -37 -137 -37 -163 0 -14 -6 -30 -13 -34 -18 -11 -177 -194 -177 -203
0 -8 135 -90 148 -90 4 0 18 -9 32 -20 14 -11 32 -20 41 -20 9 0 59 47 113
105 82 90 96 110 96 140 0 103 48 217 118 283 63 58 130 89 237 107 76 14 103
14 173 4 45 -7 85 -9 89 -6 10 10 -44 63 -103 102 -82 55 -190 85 -298 84 -50
0 -100 -4 -111 -9z"/>
<path d="M2406 1867 c-19 -64 -21 -203 -5 -244 77 -188 145 -273 267 -331 67
-32 81 -35 170 -35 96 -1 124 5 225 48 29 12 46 13 75 6 30 -8 240 -51 250
-51 1 0 1 62 0 137 l-3 137 -60 13 c-33 7 -80 17 -105 23 -102 23 -108 23
-172 -3 -96 -38 -191 -50 -259 -34 -129 31 -229 121 -309 279 -28 57 -53 104
-55 106 -2 2 -10 -21 -19 -51z"/>
</g>
</svg>
